<svg xmlns="http://www.w3.org/2000/svg" width="512" height="512" viewBox="0 0 512 512">
  <defs>
    <linearGradient id="bg" x1="0" y1="0" x2="1" y2="1">
      <stop offset="0" stop-color="#64748B"/>
      <stop offset="1" stop-color="#1E293B"/>
    </linearGradient>
    <linearGradient id="sheen" x1="0" y1="0" x2="0" y2="1">
      <stop offset="0" stop-color="#FFFFFF" stop-opacity="0.16"/>
      <stop offset="0.5" stop-color="#FFFFFF" stop-opacity="0"/>
    </linearGradient>
  </defs>
  <rect width="512" height="512" rx="112" fill="url(#bg)"/>
  <rect width="512" height="512" rx="112" fill="url(#sheen)"/>
  <g fill="none" stroke="#FFFFFF" stroke-width="22"><rect x="120" y="120" width="104" height="104" rx="14"/><rect x="288" y="120" width="104" height="104" rx="14"/><rect x="120" y="288" width="104" height="104" rx="14"/></g><g fill="#FFFFFF"><rect x="152" y="152" width="40" height="40" rx="6"/><rect x="320" y="152" width="40" height="40" rx="6"/><rect x="152" y="320" width="40" height="40" rx="6"/><rect x="288" y="288" width="40" height="40" rx="6"/><rect x="352" y="288" width="40" height="40" rx="6"/><rect x="320" y="320" width="40" height="40" rx="6"/><rect x="288" y="352" width="40" height="40" rx="6"/><rect x="352" y="352" width="40" height="40" rx="6"/></g>
</svg>
